<?xml version="1.0" encoding="utf-8"?>
<!-- Generator: Adobe Illustrator 17.1.0, SVG Export Plug-In . SVG Version: 6.00 Build 0)  -->
<!DOCTYPE svg PUBLIC "-//W3C//DTD SVG 1.1//EN" "http://www.w3.org/Graphics/SVG/1.1/DTD/svg11.dtd">
<svg version="1.1" id="Layer_1" xmlns="http://www.w3.org/2000/svg" xmlns:xlink="http://www.w3.org/1999/xlink" x="0px" y="0px"
	 viewBox="0 0 550 180" enable-background="new 0 0 550 180" xml:space="preserve">
<path opacity="0.2" fill="#FFFFFF" d="M361.393,107.18l-68.428-68.432c-1.208-1.207-2.509-2.263-3.881-3.168
	c-6.859-4.526-15.479-5.284-22.929-2.265c-2.98,1.207-5.773,3.018-8.192,5.433l-68.428,68.432c-9.664,9.66-9.664,25.334,0,34.994
	c4.833,4.833,11.169,7.25,17.501,7.25c6.332,0,12.667-2.417,17.501-7.25l50.93-50.927l50.932,50.927
	c4.833,4.833,11.165,7.25,17.497,7.25s12.671-2.417,17.497-7.25C371.06,132.515,371.06,116.84,361.393,107.18z"/>
</svg>
