<?xml version="1.0" encoding="utf-8"?>
<!-- Generator: Adobe Illustrator 17.1.0, SVG Export Plug-In . SVG Version: 6.00 Build 0)  -->
<!DOCTYPE svg PUBLIC "-//W3C//DTD SVG 1.1//EN" "http://www.w3.org/Graphics/SVG/1.1/DTD/svg11.dtd">
<svg version="1.1" id="Layer_1" xmlns="http://www.w3.org/2000/svg" xmlns:xlink="http://www.w3.org/1999/xlink" x="0px" y="0px"
	 viewBox="0 0 500 200" enable-background="new 0 0 500 200" xml:space="preserve">
<path fill="#FFFFFF" d="M328.91,147.987c-0.577-1.41-1.617-2.44-3.126-3.076s-2.986-0.667-4.42-0.107
	c-1.439,0.567-2.516,1.56-3.235,2.973c0,0-2.431,6.362-4.504,10.434c-2.072,4.073-3.955,5.802-4.96,6.788
	c-1.437,1.134-3.594,1.842-6.467,2.124c-1.87,0.141-3.271-0.107-4.206-0.742c-0.936-0.639-1.691-1.805-2.264-3.502
	c-1.439-3.678-2.085-9.83-1.94-18.458c0-1.131,0.107-4.596,0.323-10.397c0.216-5.799,0.323-9.971,0.323-12.518
	c-0.145-4.101-0.577-7.496-1.292-10.184c-1.008-3.957-2.803-6.858-5.392-8.7c-5.033-3.675-10.639-2.898-16.817,2.334
	c-3.164,2.69-6.544,6.863-10.135,12.518c0-1.411,0.071-2.898,0.216-4.455c0.141-1.554-0.324-2.935-1.401-4.138
	c-1.078-1.2-2.409-1.873-3.99-2.014c-1.583-0.141-2.984,0.316-4.204,1.379c-1.223,1.061-1.906,2.371-2.049,3.924
	c-0.792,11.806-2.058,23.414-3.696,34.86c-2.494,10.804-6.151,18.077-10.974,21.819c-0.855,0.666-1.567,0.998-2.138,0.998
	c-0.38,0-0.762-0.189-1.141-0.57c-1.519-1.33-2.991-3.99-4.416-7.98l-1.139-3.848c6.269-12.823,11.54-30.207,15.814-52.149
	c0,0,0.499-3.562,0.642-5.272c0.142-1.71,0.213-2.992,0.213-3.848c0.189-3.608-0.049-6.505-0.712-8.691
	c-0.855-2.565-2.115-4.607-3.777-6.126c-1.663-1.519-3.633-2.327-5.912-2.424c-4.086-0.284-7.79,1.618-11.114,5.699
	c-5.037,6.176-7.886,16.103-8.549,29.781c-0.192,5.321-0.05,10.686,0.426,16.101c-1.521-0.665-3.04-0.997-4.559-0.997
	c-5.129,0.095-9.595,3.135-13.393,9.117c-0.589,0.963-1.09,1.969-1.592,2.975c-0.078,0.157-0.198,0.271-0.26,0.446
	c-0.007,0.017-0.033,0.098-0.043,0.122c-1.507,3.151-2.574,6.524-3.241,10.096c-1.227,4.101-2.413,7.463-3.557,10.014
	c-1.709,3.705-3.419,6.318-5.129,7.837c-1.617,1.424-3.373,1.902-5.272,1.424c0,0-2.684-0.714-3.611,2.749
	c-0.929,3.463,1.617,4.661,1.617,4.661c4.463,1.232,8.549,0.235,12.253-2.991c1.764-1.514,3.392-3.6,4.906-6.158
	c0.507,1.129,1.086,2.198,1.791,3.165c2.089,2.757,4.63,4.417,7.623,4.987c2.991,0.57,5.675,0.235,8.049-0.997
	c4.465-1.803,8.216-4.795,11.258-8.977l0.997-1.568c1.615,3.896,3.466,6.793,5.556,8.693c1.899,1.613,3.991,2.421,6.269,2.421
	c2.28,0,4.607-0.904,6.982-2.707c0.985-0.759,1.926-1.622,2.83-2.578c0.514,1.303,1.345,2.331,2.682,2.929
	c2.443,1.131,4.669,0.708,6.684-1.271c0.432-0.426,0.788-0.849,1.078-1.272c0.287-0.563,0.432-1.131,0.432-1.698
	c0.142-0.282,0.216-0.708,0.216-1.275c1.147-5.655,2.227-11.456,3.235-17.396c0.285-1.413,0.571-2.475,0.861-3.183
	c0.574-1.837,2.012-5.232,4.313-10.185c2.444-4.809,5.03-9.476,7.762-14.003c3.305-5.376,6.324-9.125,9.056-11.246
	c1.005-0.849,1.796-1.413,2.373-1.698c0,0,0.568,0.456,0.862,2.333c0.294,1.878,0.788,14.217,0.646,19.733
	c-0.145,5.517-0.288,8.913-0.43,10.184c-0.146,10.184,0.717,17.753,2.587,22.703c1.434,3.963,3.592,6.929,6.467,8.909
	c3.306,2.262,7.258,3.183,11.861,2.759c5.46-0.567,9.844-2.195,13.152-4.88c2.012-1.698,5.849-6.391,7.332-9.123
	c1.483-2.73,5.367-12.131,5.367-12.131C329.484,150.888,329.484,149.403,328.91,147.987z M213.469,163.434
	c-2.186,3.041-4.798,5.178-7.838,6.412c-2.849,1.141-5.036,0.665-6.554-1.427c-1.996-2.657-2.707-6.554-2.138-11.683
	c0.475-5.129,1.994-9.782,4.561-13.965c2.278-3.704,4.558-5.556,6.838-5.556c1.996,0,4.083,1.474,6.269,4.418
	c0,0.381,2.658,13.157,3.136,14.961C216.318,159.158,214.894,161.44,213.469,163.434z M222.588,143.485
	c-0.38-1.14-2.707-17.097-2.423-25.077c0.38-11.114,1.901-18.903,4.561-23.369c1.141-1.898,2.23-2.801,3.277-2.706
	c0.76,0,1.329,0.951,1.71,2.849c2.48,10.924-4.324,38.616-6.981,48.587C222.635,143.677,222.588,143.582,222.588,143.485z"/>
</svg>
