<?xml version="1.0" encoding="utf-8"?>
<!-- Generator: Adobe Illustrator 17.1.0, SVG Export Plug-In . SVG Version: 6.00 Build 0)  -->
<!DOCTYPE svg PUBLIC "-//W3C//DTD SVG 1.1//EN" "http://www.w3.org/Graphics/SVG/1.1/DTD/svg11.dtd">
<svg version="1.1" xmlns="http://www.w3.org/2000/svg" xmlns:xlink="http://www.w3.org/1999/xlink" x="0px" y="0px"
	 viewBox="0 0 500 500" enable-background="new 0 0 500 500" xml:space="preserve">
<g id="github" display="none">
	<g display="inline">
		<path fill-rule="evenodd" clip-rule="evenodd" fill="#FFFFFF" d="M249.757,23.435C124.54,23.435,23,124.953,23,250.193
			c0,100.187,64.972,185.184,155.071,215.17c11.331,2.098,15.493-4.921,15.493-10.909c0-5.405-0.209-23.271-0.308-42.218
			c-63.084,13.718-76.395-26.755-76.395-26.755c-10.315-26.208-25.177-33.179-25.177-33.179
			c-20.576-14.074,1.551-13.784,1.551-13.784c22.769,1.599,34.76,23.37,34.76,23.37c20.223,34.664,53.047,24.642,65.988,18.848
			c2.035-14.654,7.91-24.661,14.397-30.323c-50.367-5.732-103.315-25.178-103.315-112.064c0-24.756,8.86-44.985,23.366-60.865
			c-2.354-5.713-10.117-28.775,2.197-60.011c0,0,19.042-6.091,62.372,23.247c18.089-5.025,37.488-7.545,56.758-7.633
			c19.27,0.088,38.684,2.607,56.806,7.633c43.281-29.338,62.295-23.247,62.295-23.247c12.343,31.236,4.58,54.298,2.226,60.011
			c14.54,15.88,23.337,36.109,23.337,60.865c0,87.096-53.047,106.27-103.542,111.884c8.133,7.037,15.379,20.836,15.379,41.991
			c0,30.341-0.26,54.76-0.26,62.229c0,6.036,4.081,13.106,15.574,10.88c90.051-30.018,154.942-114.987,154.942-215.14
			C476.514,124.953,374.989,23.435,249.757,23.435z"/>
	</g>
</g>
<g id="email">
	<path fill="#FFFFFF" d="M251,23.243C125.765,23.243,24.243,124.765,24.243,250S125.765,476.757,251,476.757
		S477.757,375.235,477.757,250S376.235,23.243,251,23.243z M104.927,168.345l61.657,56.456L194.105,250l-27.522,25.201
		l-61.657,56.456V168.345z M251,342.076H104.927l73.036-66.875l21.832-19.99L251,302.096l51.205-46.885l21.832,19.99l73.036,66.875
		H251z M397.073,331.657l-61.659-56.456L307.895,250l27.52-25.199l61.659-56.456V331.657z M324.036,224.801L251,291.677
		l-73.036-66.875l-73.036-66.875H251h146.073L324.036,224.801z"/>
</g>
<g id="pikup" display="none">
	<g display="inline">
		<path fill="#FFFFFF" d="M311.868,146.177l-35.096,12.773l25.271,69.43c2.296,6.308,2.349,11.808,0.16,16.5
			c-2.192,4.69-6.313,8.14-12.369,10.343c-6.11,2.224-11.519,2.216-16.23-0.023c-4.715-2.237-8.199-6.46-10.456-12.666
			l-25.271-69.428L135.42,210.398l41.429,113.82l35.327-12.859l-15.374-42.238l19.255-7.007c4.69-1.706,8.844-3.627,12.48-5.751
			c2.083,4.821,5.137,9.946,9.192,15.382c2.982,4.012,7.07,7.474,12.265,10.388c5.192,2.91,10.407,4.719,15.644,5.42
			c5.237,0.703,11.271,0.246,18.102-1.36c6.829-1.608,13.012-3.418,18.553-5.436c9.575-3.484,17.317-7.738,23.229-12.758
			c4.258-3.599,7.81-8.451,10.661-14.554c2.847-6.106,4.234-12.527,4.156-19.265c-0.078-6.734-1.342-13.467-3.789-20.191
			L311.868,146.177z M210.028,234.196c-1.886,3.355-6.22,6.263-13,8.731l-8.619,3.136l-9.239-25.387l10.014-3.646
			c6.573-2.392,11.503-2.779,14.79-1.161c3.283,1.618,5.577,4.213,6.876,7.785C212.188,227.329,211.914,230.843,210.028,234.196z"/>
		<path fill="#FFFFFF" d="M250,23.243C124.765,23.243,23.243,124.765,23.243,250S124.765,476.757,250,476.757
			S476.757,375.235,476.757,250S375.235,23.243,250,23.243z M360.168,310.491c-5.721,26.409-13.674,53.218-24.206,78.089
			c-3.461,8.172-8.774,17.795-14.511,23.27c-2.933,2.796-10.493,6.331-10.493,6.331s-8.062,2.151-12.105,1.893
			c-7.914-0.504-18.169-4.461-26.076-8.494c-24.054-12.285-47.377-27.71-68.737-44.261c-29.668-22.983-58.707-47.25-82.278-79.64
			c-12.226-16.812-25.695-38.223-28.499-60.907c-2.544-20.64,2.407-37.889,12.394-53.806c17.514-27.939,68.029-55.967,92.445-64.854
			s81.129-19.888,112.505-9.743c17.883,5.776,32.761,15.806,44.079,33.254c12.435,19.177,15.88,44.239,17.322,64.975
			C374.77,236.56,368.123,273.814,360.168,310.491z"/>
	</g>
</g>
<g id="qr" display="none">
	<g display="inline">
		<polygon fill="#FFFFFF" points="322.076,260.296 322.076,280.891 301.483,280.891 301.483,301.483 280.891,301.483 
			280.891,280.891 260.296,280.891 239.704,280.891 239.704,260.296 239.704,239.704 260.296,239.704 260.296,260.296 
			280.891,260.296 301.483,260.296 301.483,239.704 301.483,219.111 280.891,219.111 260.296,219.111 239.704,219.111 
			239.704,198.519 260.296,198.519 260.296,177.924 280.891,177.924 280.891,157.332 280.891,136.739 260.296,136.739 
			239.704,136.739 239.704,157.332 239.704,177.924 219.111,177.924 219.111,198.519 219.111,219.111 198.517,219.111 
			177.924,219.111 157.332,219.111 157.332,239.704 136.739,239.704 136.739,260.296 157.332,260.296 157.332,280.891 
			177.924,280.891 177.924,260.296 198.517,260.296 219.111,260.296 219.111,280.891 219.111,301.483 219.111,322.076 
			239.704,322.076 239.704,301.483 260.296,301.483 260.296,322.076 260.296,342.67 239.704,342.67 219.111,342.67 219.111,363.263 
			239.704,363.263 260.296,363.263 280.891,363.263 301.483,363.263 322.076,363.263 322.076,342.67 301.483,342.67 280.891,342.67 
			280.891,322.076 301.483,322.076 322.076,322.076 342.668,322.076 342.668,342.67 363.263,342.67 363.263,322.076 
			363.263,301.483 342.668,301.483 342.668,280.891 363.263,280.891 363.263,260.296 342.668,260.296 		"/>
		<path fill="#FFFFFF" d="M157.332,301.483h-20.593v20.592v20.595v20.592h20.593h20.593h20.593V342.67v-20.595v-20.592h-20.593
			H157.332z M177.924,342.67h-20.593v-20.595h20.593V342.67z"/>
		<path fill="#FFFFFF" d="M177.924,198.519h20.593v-20.595v-20.593v-20.593h-20.593h-20.593h-20.593v20.593v20.593v20.595h20.593
			H177.924z M157.332,157.332h20.593v20.593h-20.593V157.332z"/>
		<polygon fill="#FFFFFF" points="322.076,219.111 322.076,239.704 342.668,239.704 363.263,239.704 363.263,219.111 
			342.668,219.111 		"/>
		<path fill="#FFFFFF" d="M250,23.243C124.765,23.243,23.243,124.765,23.243,250S124.765,476.757,250,476.757
			S476.757,375.235,476.757,250S375.235,23.243,250,23.243z M383.855,136.739v20.593v20.593v20.595v20.593v20.593v20.593v20.595
			v20.593v20.592v20.595v20.592v20.592h-20.592h-20.595h-20.592h-20.592h-20.593h-20.595h-20.593h-20.593h-20.595h-20.593h-20.593
			h-20.593h-20.595v-20.592V342.67v-20.595v-20.592v-20.593v-20.595v-20.593v-20.593v-20.593v-20.595v-20.593v-20.593v-20.595
			h20.595h20.593h20.593h20.593h20.595h20.593h20.593h20.595h20.593h20.592h20.592h20.595h20.592V136.739z"/>
		<path fill="#FFFFFF" d="M322.076,136.739h-20.592v20.593v20.593v20.595h20.592h20.592h20.595v-20.595v-20.593v-20.593h-20.595
			H322.076z M342.668,177.924h-20.592v-20.593h20.592V177.924z"/>
	</g>
</g>
</svg>
