<?xml version="1.0" encoding="utf-8"?>
<!-- Generator: Adobe Illustrator 17.1.0, SVG Export Plug-In . SVG Version: 6.00 Build 0)  -->
<!DOCTYPE svg PUBLIC "-//W3C//DTD SVG 1.1//EN" "http://www.w3.org/Graphics/SVG/1.1/DTD/svg11.dtd">
<svg version="1.1" xmlns="http://www.w3.org/2000/svg" xmlns:xlink="http://www.w3.org/1999/xlink" x="0px" y="0px"
	 viewBox="0 0 500 500" enable-background="new 0 0 500 500" xml:space="preserve">
<g id="ruby">
	<path fill="#FFFFFF" d="M482.048,118.957c0.356-11.1-0.465-22.512-3.226-33.55c-0.037-0.279-0.027-0.559-0.092-0.836
		c-8.238-34.929-34.103-56.903-74.805-63.551c-0.16-0.025-0.315,0.029-0.475,0.015c-0.235-0.023-0.447-0.122-0.687-0.125
		l-124.603-1.739c-0.116,0.007-0.224,0.052-0.34,0.062c-0.925,0.023-1.848,0.142-2.736,0.472l-97.131,36.354
		c-1.04,0.391-1.987,0.974-2.796,1.728c-10.885,10.12-25.403,23.763-39.694,37.19c-22.172,20.835-47.228,44.378-51.262,47.718
		c-3.186,1.959-7.209,8.657-54.762,98.171l-5.112,9.62c-0.099,0.187-0.151,0.391-0.237,0.583c-0.073,0.165-0.139,0.325-0.201,0.495
		c-0.294,0.808-0.483,1.64-0.524,2.49c-0.001,0.04-0.022,0.073-0.023,0.113l-4.357,129.087c0,0.04-0.014,0.077-0.012,0.117
		c0.001,0.033,0.004,0.063,0.006,0.096l-0.006,0.146c-0.001,0.051,0.021,0.096,0.019,0.147
		c2.753,92.255,70.016,96.519,98.111,97.377h0.001c0.001,0,0.001,0,0.001,0c0.439,0.073,0.857,0.212,1.31,0.212
		c0.193,0,0.385-0.006,0.578-0.022l330.092-22.398c4.188-0.281,7.534-3.599,7.859-7.787L482.362,118.3L482.048,118.957z
		 M403.76,38.352c0.022,0.004,0.044,0.011,0.066,0.015c23.826,4.69,40.916,15.388,50.805,31.851c1.164,1.936,2.185,3.938,3.13,5.972
		l-97.595-13.696l-0.173-0.025L403.76,38.352z M187.628,298.162l106.814-99.271l36.701,145.375L187.628,298.162z M325.879,360.552
		c-24.369,22.139-51.526,44.116-82.399,62.205l-55.252-106.602L325.879,360.552z M312.432,201.095
		c30.468,18.698,72.843,44.664,92.828,56.868c2.025,1.237,3.899,2.38,5.426,3.312c-19.36,29.05-41.493,55.088-63.234,78.539
		l-1.043-4.133L312.432,201.095z M415.183,284.485l20.743,143.176l-80.589-71.532C375.561,334.568,396.3,310.822,415.183,284.485z
		 M418.97,246.529c-0.556-0.34-1.223-0.747-1.848-1.128c-16.893-10.313-57.951-35.464-90.743-55.582l124.608-8.315
		c-7.799,22.797-23.309,51.354-31.149,63.668C419.546,245.63,419.24,246.117,418.97,246.529z M310.771,173.626l28.731-91.261
		l100.978,82.579L310.771,173.626z M370.292,37.364l0.388,0.006h-0.001L370.292,37.364l-35.798,19.773l-29.285-20.681
		L370.292,37.364z M41.439,418.069c-2.947-8.892-4.88-19.506-5.454-32.211l9.635-17.572L41.439,418.069z M37.097,347.806
		l1.626-48.259l9.708,27.53L37.097,347.806z M59.899,228.363c12.41-32.474,37.504-68.911,68.839-99.971
		c48.923-48.505,107.356-81.095,145.405-81.095c11.832,0,21.011,3.208,27.285,9.537c27.477,27.742-3.142,102.81-68.25,167.341
		c-50.024,49.584-108.512,82.894-145.548,82.894c-11.237,0-20.004-3.098-26.063-9.218C48.425,284.606,47.83,259.924,59.899,228.363z
		 M104.596,461.456c-22.282,0-36.882-6.02-48.153-20.021l6.704-79.804l40.714,95.081c0.651,1.615,1.293,3.211,1.907,4.738
		C105.377,461.456,104.987,461.456,104.596,461.456z M118.461,447.701C91.702,381.24,78.392,349.15,70.726,333.709l88.114-19.765
		L118.461,447.701z M173.386,324.262l53.71,103.624l-93.946,29.642L173.386,324.262z M212.403,457.37
		c10.285-4.386,20.202-9.221,29.767-14.443l85.349,6.697L212.403,457.37z M268.043,427.999
		c23.647-15.077,46.296-33.142,70.336-55.977c1.555-1.418,3.071-2.836,4.601-4.253l81.711,72.526L268.043,427.999z M445.655,376.915
		l-16.397-113.156c10.828-16.889,20.732-34.775,29.145-53.767L445.655,376.915z M458.891,158.159l-95.565-78.152L463.38,94.049
		C467.704,116.734,463.356,141.397,458.891,158.159z"/>
</g>
<g id="node.js" display="none">
	<g display="inline">
		<path fill-rule="evenodd" clip-rule="evenodd" fill="#FFFFFF" d="M84.014,254.012c0-1.379-0.725-2.646-1.915-3.329l-31.721-18.256
			c-0.537-0.315-1.138-0.48-1.747-0.504c-0.055,0-0.283,0-0.328,0c-0.606,0.025-1.207,0.189-1.752,0.504L14.83,250.683
			c-1.183,0.683-1.918,1.95-1.918,3.329l0.069,49.157c0,0.683,0.355,1.319,0.957,1.655c0.589,0.353,1.317,0.353,1.903,0
			l18.852-10.795c1.193-0.708,1.918-1.958,1.918-3.324v-22.966c0-1.369,0.726-2.636,1.913-3.317l8.027-4.624
			c0.599-0.345,1.252-0.514,1.921-0.514c0.654,0,1.324,0.169,1.906,0.514l8.025,4.624c1.188,0.681,1.916,1.948,1.916,3.317v22.966
			c0,1.366,0.735,2.623,1.92,3.324l18.847,10.795c0.591,0.353,1.329,0.353,1.915,0c0.584-0.336,0.951-0.972,0.951-1.655
			L84.014,254.012z"/>
		<path fill-rule="evenodd" clip-rule="evenodd" fill="#FFFFFF" d="M253.399,186.437c-0.594-0.33-1.318-0.323-1.904,0.021
			c-0.585,0.344-0.945,0.973-0.945,1.652v48.681c0,0.478-0.256,0.922-0.67,1.162c-0.415,0.24-0.927,0.24-1.341,0l-7.945-4.578
			c-1.185-0.683-2.644-0.682-3.829,0.001l-31.734,18.314c-1.186,0.684-1.917,1.949-1.917,3.318v36.636
			c0,1.369,0.73,2.633,1.915,3.319l31.732,18.328c1.187,0.684,2.647,0.684,3.834,0l31.737-18.328
			c1.185-0.686,1.915-1.95,1.915-3.319v-91.323c0-1.389-0.752-2.669-1.965-3.346L253.399,186.437z M250.455,279.608
			c0,0.342-0.183,0.658-0.48,0.829l-10.895,6.281c-0.296,0.17-0.661,0.17-0.957,0l-10.895-6.281c-0.297-0.17-0.48-0.487-0.48-0.829
			v-12.581c0-0.342,0.183-0.658,0.478-0.83l10.895-6.293c0.297-0.171,0.662-0.171,0.959,0l10.895,6.293
			c0.296,0.171,0.478,0.488,0.478,0.83V279.608z"/>
		<path fill-rule="evenodd" clip-rule="evenodd" fill="#FFFFFF" d="M366.932,266.697c1.18-0.686,1.907-1.948,1.907-3.313v-8.878
			c0-1.365-0.727-2.629-1.908-3.314l-31.53-18.307c-1.186-0.689-2.651-0.691-3.84-0.005l-31.723,18.314
			c-1.185,0.684-1.915,1.949-1.915,3.318v36.626c0,1.378,0.739,2.648,1.935,3.33l31.525,17.963c1.163,0.663,2.588,0.671,3.758,0.021
			l19.068-10.599c0.605-0.337,0.981-0.972,0.985-1.662c0.005-0.691-0.363-1.331-0.961-1.675l-31.924-18.323
			c-0.596-0.342-0.963-0.976-0.963-1.662v-11.478c0-0.685,0.365-1.318,0.959-1.66l9.935-5.728c0.591-0.342,1.322-0.342,1.913,0
			l9.94,5.728c0.594,0.342,0.959,0.975,0.959,1.66v9.032c0,0.684,0.366,1.318,0.96,1.66c0.594,0.343,1.325,0.34,1.918-0.004
			L366.932,266.697z"/>
		<path fill-rule="evenodd" clip-rule="evenodd" fill="#FFFFFF" d="M141.718,232.688c1.185-0.685,2.646-0.685,3.831,0l31.73,18.31
			c1.186,0.685,1.917,1.949,1.917,3.319v36.649c0,1.369-0.73,2.633-1.915,3.319l-31.73,18.325c-1.186,0.684-2.647,0.684-3.833,0
			l-31.723-18.325c-1.185-0.685-1.915-1.95-1.915-3.319v-36.651c0-1.369,0.73-2.633,1.917-3.318L141.718,232.688z"/>
		<path fill="#FFFFFF" d="M428.539,313.134c-1.093,0-2.182-0.286-3.138-0.84l-9.99-5.911c-1.491-0.835-0.763-1.13-0.271-1.302
			c1.99-0.691,2.392-0.85,4.517-2.055c0.221-0.124,0.514-0.077,0.743,0.057l7.674,4.556c0.278,0.154,0.671,0.154,0.927,0
			l29.92-17.269c0.278-0.159,0.457-0.48,0.457-0.81v-34.529c0-0.338-0.179-0.654-0.465-0.825l-29.908-17.254
			c-0.276-0.162-0.644-0.162-0.922,0l-29.9,17.259c-0.291,0.166-0.474,0.492-0.474,0.82v34.529c0,0.33,0.184,0.644,0.472,0.8
			l8.196,4.735c4.447,2.224,7.17-0.395,7.17-3.026v-34.092c0-0.482,0.387-0.862,0.87-0.862h3.794c0.474,0,0.867,0.38,0.867,0.862
			v34.092c0,5.935-3.232,9.339-8.859,9.339c-1.729,0-3.091,0-6.892-1.873l-7.846-4.517c-1.938-1.12-3.138-3.215-3.138-5.458v-34.529
			c0-2.244,1.2-4.338,3.138-5.453l29.92-17.289c1.893-1.071,4.41-1.071,6.288,0l29.917,17.289c1.938,1.12,3.143,3.21,3.143,5.453
			v34.529c0,2.244-1.205,4.331-3.143,5.458l-29.917,17.274C430.733,312.848,429.647,313.134,428.539,313.134z"/>
		<path fill="#FFFFFF" d="M437.782,289.346c-13.093,0-15.836-6.01-15.836-11.051c0-0.48,0.385-0.862,0.864-0.862h3.868
			c0.432,0,0.792,0.31,0.86,0.733c0.584,3.938,2.326,5.925,10.243,5.925c6.303,0,8.986-1.426,8.986-4.77
			c0-1.928-0.76-3.359-10.556-4.318c-8.186-0.81-13.249-2.619-13.249-9.168c0-6.037,5.088-9.637,13.62-9.637
			c9.585,0,14.328,3.327,14.929,10.465c0.022,0.246-0.065,0.482-0.229,0.666c-0.164,0.171-0.393,0.276-0.633,0.276h-3.883
			c-0.402,0-0.758-0.286-0.84-0.676c-0.932-4.144-3.198-5.468-9.344-5.468c-6.882,0-7.682,2.398-7.682,4.194
			c0,2.176,0.944,2.81,10.236,4.04c9.195,1.215,13.563,2.937,13.563,9.399C452.698,285.611,447.262,289.346,437.782,289.346z"/>
		<g>
			<path fill="#FFFFFF" d="M479.038,232.37v0.887h-2.517v6.561h-1.016v-6.561h-2.509v-0.887H479.038z"/>
			<path fill="#FFFFFF" d="M479.938,232.37h1.446l2.139,6.296l2.129-6.296h1.436v7.448h-0.964v-4.395
				c0-0.154,0.003-0.405,0.008-0.753c0.01-0.358,0.015-0.735,0.015-1.135l-2.129,6.283h-0.999l-2.146-6.283v0.224
				c0,0.184,0,0.462,0.012,0.84c0.007,0.37,0.017,0.646,0.017,0.825v4.395h-0.964V232.37z"/>
		</g>
		<path fill-rule="evenodd" clip-rule="evenodd" fill="#FFFFFF" d="M333.013,264.982c0.227-0.132,0.508-0.132,0.736,0l6.089,3.513
			c0.227,0.132,0.368,0.374,0.368,0.637v7.031c0,0.263-0.14,0.506-0.368,0.637l-6.089,3.513c-0.227,0.132-0.508,0.132-0.736,0
			l-6.084-3.513c-0.227-0.132-0.368-0.374-0.368-0.637v-7.031c0-0.264,0.14-0.506,0.368-0.637L333.013,264.982z"/>
	</g>
</g>
</svg>
